<svg id="组_130" data-name="组 130" xmlns="http://www.w3.org/2000/svg" width="223.819" height="230.378" viewBox="0 0 223.819 230.378">
  <g id="组_129" data-name="组 129" transform="translate(80.503 0)">
    <path id="路径_106" data-name="路径 106" d="M123.508,157.26l.919-87.1.129-12.262c.026-2.347-3.623-2.349-3.647,0L119.99,145l-.131,12.262c-.024,2.349,3.623,2.351,3.649,0Z" transform="translate(-80.638 -56.135)" fill="#c9b17c"/>
    <path id="路径_107" data-name="路径 107" d="M121.7,137.951h21.409a1.85,1.85,0,0,0,1.824-1.824l.071-51.058.01-7.35a1.825,1.825,0,0,0-3.647,0l-.073,51.058-.01,7.35,1.825-1.825H121.7a1.825,1.825,0,0,0,0,3.649Z" transform="translate(-80.576 -41.466)" fill="#c9b17c"/>
    <path id="路径_108" data-name="路径 108" d="M129.271,147.574l-17.844,0,1.824,1.824.43-70.724.063-10.149c.014-2.349-3.633-2.351-3.647,0l-.432,70.722L109.6,149.4a1.848,1.848,0,0,0,1.824,1.824l17.844,0a1.825,1.825,0,0,0,0-3.647Z" transform="translate(-88.226 -48.272)" fill="#c9b17c"/>
    <path id="路径_109" data-name="路径 109" d="M119.545,123.628h-20.2l1.825,1.824-.181-34.447-.026-4.959c-.012-2.347-3.659-2.351-3.647,0l.179,34.448.026,4.957a1.852,1.852,0,0,0,1.824,1.825h20.2a1.825,1.825,0,0,0,0-3.649Z" transform="translate(-97.318 -35.304)" fill="#c9b17c"/>
    <path id="路径_110" data-name="路径 110" d="M134.474,121.34h8.432a1.848,1.848,0,0,0,1.824-1.824l-.221-25.6-.031-3.685c-.021-2.347-3.668-2.352-3.647,0l.219,25.6.031,3.685,1.825-1.824h-8.432a1.825,1.825,0,0,0,0,3.647Z" transform="translate(-71.126 -32.207)" fill="#c9b17c"/>
    <path id="路径_111" data-name="路径 111" d="M122.545,85.486h9.927a1.852,1.852,0,0,0,1.824-1.825l.134-18.571.019-2.673c.017-2.349-3.63-2.351-3.647,0l-.134,18.571-.019,2.673,1.823-1.824h-9.927a1.826,1.826,0,0,0,0,3.649Z" transform="translate(-79.953 -52.79)" fill="#c9b17c"/>
    <path id="路径_112" data-name="路径 112" d="M113.635,100.747l-8.081.056,1.824,1.824V73.867a1.825,1.825,0,0,0-3.649,0v28.759a1.851,1.851,0,0,0,1.825,1.825l8.081-.057c2.346-.016,2.351-3.664,0-3.647Z" transform="translate(-92.574 -44.317)" fill="#c9b17c"/>
    <path id="路径_113" data-name="路径 113" d="M137.423,108.346H127.006l1.825,1.824V82.542a1.825,1.825,0,0,0-3.649,0V110.17A1.851,1.851,0,0,0,127.006,112h10.417a1.825,1.825,0,0,0,0-3.649Z" transform="translate(-76.699 -37.897)" fill="#c9b17c"/>
    <path id="路径_114" data-name="路径 114" d="M125.58,116.264l-9,.049,1.825,1.824-.028-28.463,0-4.1a1.825,1.825,0,0,0-3.647,0l.026,28.461,0,4.1a1.85,1.85,0,0,0,1.824,1.823l9-.047c2.347-.012,2.352-3.661,0-3.649Z" transform="translate(-84.438 -35.652)" fill="#c9b17c"/>
  </g>
  <path id="路径_115" data-name="路径 115" d="M51.059,190.831,58.8,130.057a.905.905,0,0,1,.9-.792h8.1a.905.905,0,0,1,.9.792l7.741,60.774a.905.905,0,0,1-.9,1.018H72.727a.9.9,0,0,1-.9-.8l-2.036-17.8a.905.905,0,0,0-.9-.8H58.6a.9.9,0,0,0-.9.8l-2.036,17.8a.905.905,0,0,1-.9.8H51.957A.9.9,0,0,1,51.059,190.831Zm8.249-21.666h8.876a.906.906,0,0,0,.9-1.006l-1.4-12.688-2.523-22.919H62.333l-2.523,23-1.4,12.606A.906.906,0,0,0,59.308,169.165Z" transform="translate(-51.052 -2.019)" fill="#c9b17c"/>
  <path id="路径_116" data-name="路径 116" d="M69.889,190.944V130.17a.905.905,0,0,1,.9-.9h9.589q5.755,0,8.378,2.074t2.826,6.767q.3,5.711.3,10.209t-.3,9.114q-.2,4.693-2.826,6.767t-8.477,2.074H75.436a.905.905,0,0,0-.9.9v23.77a.9.9,0,0,1-.9.9H70.794A.9.9,0,0,1,69.889,190.944Zm4.642-28.866a.905.905,0,0,0,.9.9h4.848q3.531,0,5.046-1.289a5.781,5.781,0,0,0,1.716-4.185q.4-9.782,0-19.559a5.685,5.685,0,0,0-1.716-4.108q-1.516-1.289-4.947-1.289H75.436a.905.905,0,0,0-.9.9Z" transform="translate(-37.112 -2.019)" fill="#c9b17c"/>
  <path id="路径_117" data-name="路径 117" d="M98.884,192.518q-6.055,0-8.627-2.034t-2.674-6.727q-.206-8.057-.252-15.529t0-14.9q.047-7.431.252-15.568.1-4.7,2.674-6.729T98.884,129q6.058,0,8.629,2.032t2.674,6.729q.1,8.138.151,15.568t0,14.9q-.05,7.475-.151,15.529-.1,4.693-2.674,6.727T98.884,192.518Zm0-3.129q3.633,0,5.149-1.173t1.512-3.992q.4-12.361.355-23.626t-.355-23.234q0-2.892-1.512-4.068t-5.149-1.173q-3.63,0-5.147,1.173t-1.615,4.068q-.4,11.969-.353,23.234t.353,23.626a4.994,4.994,0,0,0,1.615,3.992Q95.254,189.391,98.884,189.389Z" transform="translate(-24.226 -2.218)" fill="#c9b17c"/>
  <path id="路径_118" data-name="路径 118" d="M118.2,190.944V130.17a.905.905,0,0,1,.9-.9H128.7q5.755,0,8.378,2.074t2.826,6.767q.5,11.265,0,20.34-.279,6.2-5.194,7.95a.907.907,0,0,0-.6,1.114l7.148,23.168a.9.9,0,0,1-.865,1.171h-3.047a.9.9,0,0,1-.867-.644L129.5,167.929a.9.9,0,0,0-.866-.644H123.75a.905.905,0,0,0-.9.9v22.754a.9.9,0,0,1-.9.9h-2.833A.9.9,0,0,1,118.2,190.944Zm4.642-27.849a.906.906,0,0,0,.9.907H128.6q3.531,0,5.044-1.293a5.773,5.773,0,0,0,1.717-4.186q.4-10.244,0-20.574a5.679,5.679,0,0,0-1.717-4.108q-1.514-1.289-4.945-1.289H123.75a.905.905,0,0,0-.9.9Z" transform="translate(-1.36 -2.019)" fill="#c9b17c"/>
  <path id="路径_119" data-name="路径 119" d="M136.067,190.944V130.17a.905.905,0,0,1,.9-.9h18.874v3.287H141.614a.905.905,0,0,0-.9.9v24.475a.905.905,0,0,0,.9.9H154.84v3.287H141.614a.9.9,0,0,0-.9.9v24.633a.905.905,0,0,0,.9.9h14.231v3.283H136.972A.9.9,0,0,1,136.067,190.944Z" transform="translate(11.859 -2.019)" fill="#c9b17c"/>
  <path id="路径_120" data-name="路径 120" d="M152.192,190.944V130.17a.905.905,0,0,1,.9-.9H171.97v3.287H157.739a.905.905,0,0,0-.9.9v24.475a.905.905,0,0,0,.9.9h13.226v3.287H157.739a.9.9,0,0,0-.9.9v24.633a.905.905,0,0,0,.9.9H171.97v3.283H153.1A.9.9,0,0,1,152.192,190.944Z" transform="translate(23.791 -2.019)" fill="#c9b17c"/>
  <path id="路径_121" data-name="路径 121" d="M168.317,190.944V130.17a.9.9,0,0,1,.9-.9H188.1v3.287H173.864a.9.9,0,0,0-.9.9v24.475a.9.9,0,0,0,.9.9h13.224v3.287H173.864a.9.9,0,0,0-.9.9v27.916a.9.9,0,0,1-.907.9h-2.831A.9.9,0,0,1,168.317,190.944Z" transform="translate(35.723 -2.019)" fill="#c9b17c"/>
  <path id="路径_122" data-name="路径 122" d="M96.381,200.57V172.129a.424.424,0,0,1,.423-.425h4.487a6.35,6.35,0,0,1,3.922.971,4.041,4.041,0,0,1,1.322,3.167q.235,5.272,0,9.519-.131,2.9-2.431,3.72a.427.427,0,0,0-.28.522l3.344,10.842a.423.423,0,0,1-.4.548h-1.427a.423.423,0,0,1-.405-.3L101.667,189.8a.425.425,0,0,0-.407-.3H98.977a.424.424,0,0,0-.425.425V200.57a.423.423,0,0,1-.423.423H96.8A.423.423,0,0,1,96.381,200.57Zm2.172-13.033a.424.424,0,0,0,.425.423h2.269a3.639,3.639,0,0,0,2.361-.606,2.7,2.7,0,0,0,.8-1.957q.191-4.795,0-9.629a2.663,2.663,0,0,0-.8-1.923,3.563,3.563,0,0,0-2.316-.6H98.977a.424.424,0,0,0-.425.425Z" transform="translate(-17.508 29.385)" fill="#c9b17c"/>
  <path id="路径_123" data-name="路径 123" d="M104.741,200.57V172.129a.424.424,0,0,1,.423-.425H114v1.538h-6.661a.424.424,0,0,0-.423.425v11.453a.424.424,0,0,0,.423.425h6.189v1.538h-6.189a.423.423,0,0,0-.423.423v11.527a.424.424,0,0,0,.423.425H114v1.536h-8.834A.423.423,0,0,1,104.741,200.57Z" transform="translate(-11.322 29.385)" fill="#c9b17c"/>
  <path id="路径_124" data-name="路径 124" d="M117.713,201.18a6.525,6.525,0,0,1-4.014-.969,4.074,4.074,0,0,1-1.322-3.205q-.047-1.279-.07-2.269c-.017-.659-.017-1.317,0-1.977.012-.553.042-1.174.089-1.867a.433.433,0,0,1,.425-.4h1.206a.417.417,0,0,1,.418.43q-.037,1.469-.035,2.939,0,1.683.047,3.332a2.606,2.606,0,0,0,.825,1.921,3.748,3.748,0,0,0,2.386.6,3.537,3.537,0,0,0,2.339-.6,2.717,2.717,0,0,0,.78-1.921q.047-1.135.047-2v-1.775q0-.913-.047-2.2a6.885,6.885,0,0,0-.472-2.49,2.344,2.344,0,0,0-1.843-1.281l-2.126-.438q-2.5-.478-3.21-1.723a8.368,8.368,0,0,1-.8-3.732q-.047-1.282,0-2.874t.047-3.094a3.955,3.955,0,0,1,1.251-3.186,6.613,6.613,0,0,1,4.039-.952,6.02,6.02,0,0,1,3.826.971,4.169,4.169,0,0,1,1.275,3.2q.047,1.062.047,2.636,0,1.388-.037,2.948a.43.43,0,0,1-.425.419h-1.23a.422.422,0,0,1-.423-.432q.037-1.323.037-2.662,0-1.556-.049-3.094a2.688,2.688,0,0,0-.778-1.938,3.529,3.529,0,0,0-2.292-.586,3.632,3.632,0,0,0-2.314.586,2.636,2.636,0,0,0-.8,1.938c-.033,1-.047,2.015-.047,3.04s.014,2.05.047,3.076a6.872,6.872,0,0,0,.472,2.727,2.519,2.519,0,0,0,1.937,1.154l2.032.4q2.5.436,3.21,1.738a8.427,8.427,0,0,1,.8,3.642q0,1.321.024,2.178t0,1.667c-.017.536-.042,1.183-.071,1.938a4.128,4.128,0,0,1-1.3,3.205A6.224,6.224,0,0,1,117.713,201.18Z" transform="translate(-5.733 29.199)" fill="#c9b17c"/>
  <path id="路径_125" data-name="路径 125" d="M126.78,201.18a6.6,6.6,0,0,1-4.038-.952,3.894,3.894,0,0,1-1.251-3.148q-.1-3.771-.118-7.268t0-6.974q.023-3.479.118-7.285a3.9,3.9,0,0,1,1.251-3.149,9.044,9.044,0,0,1,8.077,0,3.9,3.9,0,0,1,1.251,3.149q.047,3.808.071,7.285t0,6.974q-.023,3.5-.071,7.268a3.9,3.9,0,0,1-1.251,3.148A6.6,6.6,0,0,1,126.78,201.18Zm0-1.465a4.011,4.011,0,0,0,2.408-.548,2.219,2.219,0,0,0,.708-1.867q.19-5.786.167-11.058t-.167-10.873a2.271,2.271,0,0,0-.708-1.9,5.565,5.565,0,0,0-4.816,0,2.384,2.384,0,0,0-.757,1.9q-.188,5.6-.165,10.873t.165,11.058a2.332,2.332,0,0,0,.757,1.867A4.011,4.011,0,0,0,126.78,199.715Z" transform="translate(0.975 29.199)" fill="#c9b17c"/>
  <path id="路径_126" data-name="路径 126" d="M130.5,200.57V172.129a.424.424,0,0,1,.423-.425h4.487a6.35,6.35,0,0,1,3.922.971,4.041,4.041,0,0,1,1.322,3.167q.235,5.272,0,9.519-.133,2.9-2.431,3.72a.424.424,0,0,0-.28.522l3.344,10.842a.424.424,0,0,1-.405.548h-1.425a.423.423,0,0,1-.405-.3L135.785,189.8a.422.422,0,0,0-.405-.3H133.1a.424.424,0,0,0-.425.425V200.57a.423.423,0,0,1-.423.423h-1.326A.423.423,0,0,1,130.5,200.57Zm2.171-13.033a.424.424,0,0,0,.425.423h2.267a3.636,3.636,0,0,0,2.361-.606,2.7,2.7,0,0,0,.8-1.957q.188-4.795,0-9.629a2.657,2.657,0,0,0-.8-1.923,3.554,3.554,0,0,0-2.314-.6H133.1a.424.424,0,0,0-.425.425Z" transform="translate(7.74 29.385)" fill="#c9b17c"/>
  <path id="路径_127" data-name="路径 127" d="M142.262,200.57v-26.9a.424.424,0,0,0-.423-.425h-4.065V171.7h11.146v1.538h-4.063a.424.424,0,0,0-.423.425v26.9a.424.424,0,0,1-.425.423h-1.326A.423.423,0,0,1,142.262,200.57Z" transform="translate(13.123 29.385)" fill="#c9b17c"/>
</svg>
