<svg id="组_108" data-name="组 108" xmlns="http://www.w3.org/2000/svg" xmlns:xlink="http://www.w3.org/1999/xlink" width="269.411" height="149.691" viewBox="0 0 269.411 149.691">
  <defs>
    <clipPath id="clip-path">
      <path id="路径_90" data-name="路径 90" d="M0,6.856H269.411V-142.836H0Z" transform="translate(0 142.836)" fill="none"/>
    </clipPath>
  </defs>
  <g id="组_107" data-name="组 107" transform="translate(0 0)" clip-path="url(#clip-path)">
    <g id="组_100" data-name="组 100" transform="translate(0 0)">
      <path id="路径_83" data-name="路径 83" d="M.867,3.459H-18.067V3.246C-14.238.587-11.259-2.817-8.175-9.3l29.89-62.758h.425L53.731-8.455c3.192,6.488,5,9.042,8.616,11.7v.213H26.181V3.246c3.085-1.915,4.362-3.617,4.362-6.063a13.157,13.157,0,0,0-1.6-5.957l-4.255-9.041H-.515l-3.4,7.552A13.908,13.908,0,0,0-5.2-4.944c0,3.4,1.916,6.275,6.064,8.19ZM.973-21.007H23.1L11.823-44.726Z" transform="translate(18.067 72.063)" fill="#fff"/>
    </g>
    <g id="组_101" data-name="组 101" transform="translate(81.685 21.593)">
      <path id="路径_84" data-name="路径 84" d="M1.968.833c0-3.935-2.447-6.275-6.915-6.275-4.893,0-9.36,4.468-9.36,13.19V24.979c0,7.021,2.233,8.617,7.87,11.381v.213H-40.26V36.36c4.468-3.191,4.679-4.361,4.679-11.381V-4.485c0-7.446-.531-8.51-5.423-11.6v-.213h26.7V.726C-11.753-8.846-7.18-17.356,2.288-17.356c7.339,0,11.806,5.106,11.806,11.6,0,8.3-5.423,12.87-11.7,12.87a7.069,7.069,0,0,1-3.935-.958A5.546,5.546,0,0,0,1.968.833" transform="translate(41.004 17.356)" fill="#fff"/>
    </g>
    <g id="组_102" data-name="组 102" transform="translate(137.842 4.042)">
      <path id="路径_85" data-name="路径 85" d="M1.978,2.368c-1.6,10.318-6.7,20.848-20.422,20.848-10.106,0-17.871-5.85-17.765-18.508l.319-32.761h-5.318V-29.33c11.38-2.447,20.848-9.148,25.21-20h1.063v18.616H.913L.382-28.054H-14.936v33.4c0,5,2.022,7.977,6.276,7.977C-3.98,13.323-.789,9.175.6,1.836Z" transform="translate(41.208 49.328)" fill="#fff"/>
    </g>
    <g id="组_103" data-name="组 103" transform="translate(2.128 74.171)">
      <path id="路径_86" data-name="路径 86" d="M1.559,0V.212C-3.12,3.51-4.183,5.743-4.183,12.764V71.585H6.773c14.572,0,18.72-7.552,26.8-22.124h.213l-4.042,25H-32.478v-.212c4.679-3.3,5.743-5.532,5.743-12.552V12.764c0-7.021-1.064-9.254-5.743-12.552V0Z" transform="translate(32.478)" fill="#fff"/>
    </g>
    <g id="组_104" data-name="组 104" transform="translate(73.493 94.699)">
      <path id="路径_87" data-name="路径 87" d="M2.821,2.29c-2.873,2.977-8.3,5-13.615,5-9.362,0-13.829-3.724-14.892-9.573A17.41,17.41,0,0,1-25.9-4.518C-27.813,2.609-33.877,6.969-42.919,6.969c-8.3,0-15.848-4.254-15.848-13.4,0-12.126,11.7-14.36,24.463-16.7l8.085-1.488V-35.9c0-4.893-1.6-9.893-7.019-9.893-4.362,0-6.916,3.4-6.916,7.871,0,4.575,1.915,6.7,5.214,6.7a7.945,7.945,0,0,0,2.126-.319c-2.446,4.467-6.914,6.6-12.552,6.6-5.85,0-10.743-3.511-10.743-9.148,0-8.51,9.573-13.616,23.4-13.616,18.295,0,27.549,5.319,27.549,18.721,0,5.85-.213,12.232-.213,20.1,0,7.233.531,11.168,5.957,11.168a8.346,8.346,0,0,0,2.234-.213ZM-30.048-21.749c-5.957,1.276-8.3,5.424-8.3,12.126,0,5.1,1.7,8.721,5.53,8.721,4.573,0,6.488-4.787,6.6-10V-22.707Z" transform="translate(58.767 47.704)" fill="#fff"/>
    </g>
    <g id="组_105" data-name="组 105" transform="translate(134.117 94.7)">
      <path id="路径_88" data-name="路径 88" d="M1.223.049V13.663C3.776,4.2,10.582-1.015,19.624-1.015c11.914,0,16.913,8.51,16.913,18.4V41.319c0,7.022.212,8.191,4.679,11.382v.212H10.582V52.7c4.467-3.191,4.68-4.361,4.68-11.382V16.429c0-4.254-2.021-7.552-6.275-7.552-4.575,0-7.765,3.617-7.765,12.658V41.319c0,7.022.212,8.191,4.68,11.382v.212H-24.732V52.7c4.468-3.191,4.68-4.361,4.68-11.382V11.855c0-7.445-.531-8.51-5.424-11.594V.049Z" transform="translate(25.476 1.015)" fill="#fff"/>
    </g>
    <g id="组_106" data-name="组 106" transform="translate(203.676 68.958)">
      <path id="路径_89" data-name="路径 89" d="M1.817.541C1.817-6.8.435-8.5-4.458-11.053v-.214h27.55V56.809c0,6.809.319,8.191,4.786,11.382V68.4H1.817V55.532C-.416,63.4-6.479,69.467-15.628,69.467c-12.231,0-22.23-10.531-22.23-26.8,0-17.126,10.637-28.188,23.826-28.188,8.4,0,13.616,4.362,15.849,11.062Zm0,47.44V34.9c0-9.148-3.935-15-8.829-15-5.955,0-8.4,7.445-8.4,22.656,0,12.126,2.872,18.72,8.721,18.72,4.786,0,8.51-5.53,8.51-13.3" transform="translate(37.858 11.267)" fill="#fff"/>
    </g>
  </g>
</svg>
