<svg xmlns="http://www.w3.org/2000/svg" width="414.563" height="61.467" viewBox="0 0 414.563 61.467">
  <g id="组_2" data-name="组 2" transform="translate(-7.703 -8.265)">
    <path id="路径_9" data-name="路径 9" d="M66.926,8.349v.344c-8.939,0-12.551,8.509-14.265,12.035L39.852,47.294v13.5c0,6.7,3.269,7.39,7.39,7.39h2.495v.344h-27v-.344h2.495c4.122,0,7.476-.688,7.476-7.39V47.724L18.448,18.32C16.462,14.277,13.717,8.693,7.7,8.693V8.349H30.562v.344h-.6c-5.67,0-6.444,3.871-3.606,9.627l13.5,27.769L51.543,21.933a9.236,9.236,0,0,0-8.337-13.24V8.349Z" transform="translate(0 0.518)" fill="#fff"/>
    <path id="路径_10" data-name="路径 10" d="M15.251,68.526v-.344h2.487c4.122,0,7.476-.688,7.476-7.39V16.169c0-6.788-3.355-7.476-7.476-7.476H15.251V8.349H42.325v.344H39.752c-4.136,0-7.4.688-7.4,7.476V60.791c0,6.7,3.262,7.39,7.4,7.39h2.573v.344Z" transform="translate(46.557 0.518)" fill="#fff"/>
    <path id="路径_11" data-name="路径 11" d="M77.11,68.182v.344H68.774a11.825,11.825,0,0,1-9.713-5.161L46.932,45.143a11.568,11.568,0,0,0-9.706-5.24H35.42V60.791c0,6.7,3.262,7.39,7.39,7.39h2.573v.344H18.31v-.344H20.8c4.122,0,7.476-.688,7.476-7.39V16.169c0-6.788-3.355-7.476-7.476-7.476H18.31V8.349H42.381c14.53,0,21.834,7.046,21.834,15.82,0,7.562-5.584,13.928-16.587,15.383a8,8,0,0,1,6.53,3.613L67.4,63.028A11.836,11.836,0,0,0,77.11,68.182ZM35.42,39.552h6.96c9.111,0,13.67-6.874,13.67-15.383S51.491,8.693,42.381,8.693H35.42Z" transform="translate(65.426 0.518)" fill="#fff"/>
    <path id="路径_12" data-name="路径 12" d="M72.891,66.64a3.792,3.792,0,0,0,.43-3.441l-5.67-14.021H43.057l-2.573,6.365a9.233,9.233,0,0,0,8.595,12.637v.344H25.438v-.344c8.767,0,12.637-8.078,14.7-13.154L58.705,8.349h.351L78.217,56.4c1.986,4.989,4.731,11.777,10.745,11.777v.344H66.01v-.344h3.957A3.485,3.485,0,0,0,72.891,66.64Zm-5.333-17.8L55.351,18.234l-12.2,30.608Z" transform="translate(109.392 0.518)" fill="#fff"/>
    <path id="路径_13" data-name="路径 13" d="M92.472,8.349v.344c-9.885,0-9.964,10.143-9.964,14.874V68.526h-.344L44.073,11.266V53.308c0,4.731.086,14.874,9.978,14.874v.344H33.586v-.344c9.885,0,9.971-10.143,9.971-14.874V11.79a3.079,3.079,0,0,0-3.1-3.1H33.586V8.349H50.7L81.985,55.372V23.567c0-4.731-.079-14.874-9.971-14.874V8.349Z" transform="translate(159.65 0.518)" fill="#fff"/>
    <path id="路径_14" data-name="路径 14" d="M84.49,53.31c0,8.86-8.337,16.422-19.082,16.422-9.72,0-14.272-6.358-17.712-3.95l-.344.079L45.373,48.5h.351c1.885,7.906,8.939,20.716,19.684,20.716,6.881,0,12.379-5.333,12.293-11.605,0-16.336-33.016-17.885-33.016-35.246,0-7.656,7.312-14.1,16.6-14.1,6.7,0,11.254,3.348,14.695,3.348,1.032,0,1.548-.337,1.455-1.369h.351l1.978,17.275-.344.086C77.96,21.935,74.089,8.781,61.286,8.781c-6.279,0-10.58,4.3-10.58,9.455C50.706,33.54,84.49,34.314,84.49,53.31Z" transform="translate(228.11 0)" fill="#fff"/>
    <path id="路径_15" data-name="路径 15" d="M74.263,8.693c-4.129,0-7.39.688-7.39,7.476V50.383c0,11.7,5.326,18.315,13.4,18.315a21.112,21.112,0,0,0,14.193-5.24,17.247,17.247,0,0,0,5.842-13.075V23.567c0-4.731-.086-14.874-9.978-14.874V8.349H110.8v.344c-9.885,0-9.971,10.143-9.971,14.874V50.383c0,10.838-9.2,18.831-20.551,18.831S59.733,61.221,59.733,50.383V16.169c0-6.788-3.355-7.476-7.476-7.476H49.762V8.349h24.5Z" transform="translate(259.426 0.518)" fill="#fff"/>
    <path id="路径_16" data-name="路径 16" d="M116.208,8.349v.344c-9.885,0-9.971,10.143-9.971,14.874V68.526h-.344L67.809,11.266V53.308c0,4.731.079,14.874,9.971,14.874v.344H57.322v-.344c9.885,0,9.964-10.143,9.964-14.874V11.79a3.078,3.078,0,0,0-3.089-3.1H57.322V8.349h17.11l31.289,47.023V23.567c0-4.731-.086-14.874-9.978-14.874V8.349Z" transform="translate(306.057 0.518)" fill="#fff"/>
  </g>
</svg>
