<svg id="组_135" data-name="组 135" xmlns="http://www.w3.org/2000/svg" width="433.978" height="107.66" viewBox="0 0 433.978 107.66">
  <g id="组_133" data-name="组 133" transform="translate(0 0)">
    <g id="组_131" data-name="组 131" transform="translate(0 3.27)">
      <path id="路径_128" data-name="路径 128" d="M100.721,49.729q0-5.4-.156-9.074t-.235-6.493a20.938,20.938,0,0,0,3.521.392,20.953,20.953,0,0,0,3.52-.392q8.524,9.467,16.857,18.618T141.321,71.4V57q0-3.832-.04-7.549t-.078-6.844q-.038-3.13-.156-5.4a26.264,26.264,0,0,0-.274-3.052,15.993,15.993,0,0,0,7.039,0q-.391,7.12-.626,12.868T146.8,57.863q-.158,5.086-.2,10.053t-.04,10.6V87.9a32,32,0,0,0-3.207-.157,26.221,26.221,0,0,0-3.051.157q-16.114-18.774-34.182-37.783-.08,2.271-.118,4.537t-.039,4.616v9.073q0,4.691.039,7.979t.118,5.553q.076,2.269.156,3.716t.157,2.308a11.334,11.334,0,0,0-1.878-.157h-1.8q-1.8,0-3.6.157a43.056,43.056,0,0,0,.392-4.459q.235-3.832.508-9.348t.471-11.968Q100.721,55.674,100.721,49.729Z" transform="translate(-99.157 -34.161)" fill="#fff"/>
      <path id="路径_129" data-name="路径 129" d="M144.425,51a25.071,25.071,0,0,1,7.079-4.067,21.577,21.577,0,0,1,7.549-1.408,22.139,22.139,0,0,1,5.749.7,12.314,12.314,0,0,1,4.538,2.23A10.089,10.089,0,0,1,172.31,52.4a14.63,14.63,0,0,1,1.057,5.867q0,5.006-.117,9.27t-.118,8.487a12.209,12.209,0,0,0,.275,2.934,3.411,3.411,0,0,0,.821,1.6,2.6,2.6,0,0,0,1.447.7,12.117,12.117,0,0,0,2.072.156V83.3q-2.271.939-3.833,1.408a11.677,11.677,0,0,1-3.363.471,7.4,7.4,0,0,1-4.693-1.409A8.643,8.643,0,0,1,163.12,79.7a14.786,14.786,0,0,1-4.184,3.989,11.138,11.138,0,0,1-5.984,1.487,14.7,14.7,0,0,1-5.084-.783,8.974,8.974,0,0,1-3.481-2.229,8.881,8.881,0,0,1-2-3.286,11.418,11.418,0,0,1-.626-3.716,11.067,11.067,0,0,1,.821-4.458,8.948,8.948,0,0,1,2.347-3.206,13.539,13.539,0,0,1,3.637-2.23,29.552,29.552,0,0,1,4.772-1.525q3.284-.782,5.2-1.37A12.582,12.582,0,0,0,161.4,61.2a2.818,2.818,0,0,0,1.212-1.291,4.77,4.77,0,0,0,.274-1.721,6.559,6.559,0,0,0-1.994-4.81,7.453,7.453,0,0,0-5.515-1.994,11.3,11.3,0,0,0-2.738.351,13.922,13.922,0,0,0-2.7.978,16.832,16.832,0,0,0-2.345,1.369,5.809,5.809,0,0,0-1.6,1.6h-.549Zm18.538,21.278q0-3.364.039-5.125t.04-3.089a18.089,18.089,0,0,1-3.48,1.525,16.585,16.585,0,0,0-3.366,1.486,7.345,7.345,0,0,0-2.5,2.464,8.625,8.625,0,0,0-.977,4.538,6.974,6.974,0,0,0,1.212,4.42,3.935,3.935,0,0,0,3.247,1.526,5.156,5.156,0,0,0,4.184-1.957A8.958,8.958,0,0,0,162.963,72.273Z" transform="translate(-85.13 -30.422)" fill="#fff"/>
      <path id="路径_130" data-name="路径 130" d="M193.8,52.217a8.014,8.014,0,0,0,.235,1.955l-6.884-.156q-.158,1.8-.274,4.146t-.157,4.772q-.04,2.422-.077,4.692t-.04,3.833q0,4.069.2,6.57a15.745,15.745,0,0,0,.666,3.833,3.09,3.09,0,0,0,1.329,1.8,4.527,4.527,0,0,0,2.189.471,8.859,8.859,0,0,0,2.192-.2,6.326,6.326,0,0,0,1.406-.586v3.207a21.574,21.574,0,0,1-3.911,1.251,20.239,20.239,0,0,1-4.615.549q-9.935,0-9.933-11.891,0-2.269.077-5.123t.2-5.867q.118-3.011.2-5.946t.078-5.436l-5.475.078a8.014,8.014,0,0,0,.234-1.955,10.834,10.834,0,0,0-.234-2.112l5.475.234q0-2.422-.078-4.537t-.235-5.084q2.738-1.095,5.4-2.309t5.319-2.541l.783.548q-.158,1.252-.274,2.934t-.235,3.52q-.118,1.84-.156,3.755t-.04,3.637l6.884-.156A10.843,10.843,0,0,0,193.8,52.217Z" transform="translate(-75.443 -33.599)" fill="#fff"/>
      <path id="路径_131" data-name="路径 131" d="M216.585,78.279a15.425,15.425,0,0,1-5.123,4.966,13.2,13.2,0,0,1-6.687,1.683q-5.868,0-9.035-3.286t-3.169-10.874q0-3.988.156-7.039t.157-6.1q0-2.5-.117-5.435t-.274-5.907q1.015.158,2.581.274t3.284.118q1.723,0,3.286-.118t2.581-.274q-.548,4.225-.7,9.779t-.157,12.673q0,4.929,1.683,7.235a5.943,5.943,0,0,0,9.895-.743,18,18,0,0,0,1.642-8.448V63.651q0-4.771-.117-8.958t-.508-8.41a34.577,34.577,0,0,0,5.867.392q1.8,0,3.284-.118t2.583-.274q-.393,4.225-.509,8.41t-.117,8.958v3.128q0,4.773.117,9t.509,8.136a24.989,24.989,0,0,0-2.778-.157h-5.553a29.345,29.345,0,0,0-2.934.157l.314-5.632Z" transform="translate(-68.43 -30.17)" fill="#fff"/>
      <path id="路径_132" data-name="路径 132" d="M236.342,56.178a19.6,19.6,0,0,1,4.929-7.941,10.087,10.087,0,0,1,6.883-2.541,4.689,4.689,0,0,1,.665.04,4.1,4.1,0,0,0,.588.039,23.5,23.5,0,0,0-.352,2.5q-.116,1.332-.117,3.129V55.24a10.518,10.518,0,0,0,.078,1.329l-.7.626a8.336,8.336,0,0,0-1.761-.782,7.352,7.352,0,0,0-2.229-.314,7.025,7.025,0,0,0-5.553,2.308,7.948,7.948,0,0,0-2.034,5.438v3.128q0,4.773.116,9t.509,8.136a17.061,17.061,0,0,0-2.543-.157h-6.609a18.425,18.425,0,0,0-2.583.157q.391-3.912.509-8.136t.118-9V63.845q0-4.771-.118-8.958t-.509-8.41q1.33.158,2.7.274t2.7.118q1.328,0,2.7-.118t2.7-.274l-.235,9.544Z" transform="translate(-57.523 -30.364)" fill="#fff"/>
      <path id="路径_133" data-name="路径 133" d="M258.506,65.466a26.2,26.2,0,0,0,.626,5.867,14.612,14.612,0,0,0,1.915,4.732,9.423,9.423,0,0,0,3.286,3.13,9.257,9.257,0,0,0,4.655,1.134,14.614,14.614,0,0,0,9.621-3.52l.938.7-1.72,4.381a15.829,15.829,0,0,1-4.693,2.386,23.685,23.685,0,0,1-7.2.9,24.661,24.661,0,0,1-7.276-1.057,15.509,15.509,0,0,1-6.063-3.481,16.987,16.987,0,0,1-4.146-6.141,23.354,23.354,0,0,1-1.525-8.878,25.822,25.822,0,0,1,1.368-8.839,17.419,17.419,0,0,1,3.795-6.258,15.483,15.483,0,0,1,5.75-3.755,20.384,20.384,0,0,1,7.235-1.251q7.744,0,11.851,4.537t4.106,12.828v1.643a3.613,3.613,0,0,1-.077.938Zm12.045-3.52a30.3,30.3,0,0,0-1.448-9.387q-1.29-3.519-4.34-3.52a3.933,3.933,0,0,0-2.895,1.174,8.462,8.462,0,0,0-1.877,3.011,20.094,20.094,0,0,0-1.057,4.147,38.8,38.8,0,0,0-.429,4.575Z" transform="translate(-50.509 -30.422)" fill="#fff"/>
    </g>
    <g id="组_132" data-name="组 132" transform="translate(247.884)">
      <path id="路径_134" data-name="路径 134" d="M294.251,71.861q-.626,8.763-1.251,17.523a11.331,11.331,0,0,0-1.877-.157h-3.638a11.09,11.09,0,0,0-1.838.157q2.5-13.454,4.458-26.753t3.6-26.988q.861.158,1.6.274a10.259,10.259,0,0,0,1.6.118,9.995,9.995,0,0,0,1.486-.118q.782-.116,1.644-.274,2.109,4.7,4.42,9.544t4.615,9.661q2.307,4.809,4.614,9.425t4.421,8.762q4.693-8.761,9.348-18.344t8.876-19.048a17.48,17.48,0,0,0,3.366.392,17.2,17.2,0,0,0,3.284-.392q.782,6.729,1.681,14.472t1.76,15.137q.861,7.391,1.721,13.805t1.564,10.327a31.61,31.61,0,0,0-3.167-.157h-6.376q-1.641,0-3.284.157-.393-8.057-1.291-17.445t-1.838-18.617H333.6q-4.458,9.231-8.761,18.146T316.31,89.384q-.391-.08-.743-.118a7.18,7.18,0,0,0-1.486,0q-.353.038-.743.118-4.223-8.761-8.409-17.523T296.286,54.1h-.157Q294.875,63.1,294.251,71.861Z" transform="translate(-285.647 -30.403)" fill="#fff"/>
      <path id="路径_135" data-name="路径 135" d="M339.977,52.477a25.052,25.052,0,0,1,7.079-4.067A21.575,21.575,0,0,1,354.6,47a22.143,22.143,0,0,1,5.75.7,12.314,12.314,0,0,1,4.538,2.23,10.088,10.088,0,0,1,2.971,3.949,14.654,14.654,0,0,1,1.057,5.867q0,5.006-.117,9.27t-.118,8.487a12.29,12.29,0,0,0,.274,2.934,3.435,3.435,0,0,0,.821,1.6,2.611,2.611,0,0,0,1.448.7,12.144,12.144,0,0,0,2.074.156v1.878q-2.271.939-3.833,1.408a11.677,11.677,0,0,1-3.363.469,7.4,7.4,0,0,1-4.693-1.408,8.643,8.643,0,0,1-2.738-4.067,14.785,14.785,0,0,1-4.184,3.989A11.144,11.144,0,0,1,348.5,86.66a14.714,14.714,0,0,1-5.086-.782,8.833,8.833,0,0,1-5.476-5.515,11.452,11.452,0,0,1-.625-3.716,11.068,11.068,0,0,1,.821-4.458,8.96,8.96,0,0,1,2.346-3.206,13.568,13.568,0,0,1,3.638-2.23,29.634,29.634,0,0,1,4.772-1.526q3.284-.78,5.2-1.369a12.608,12.608,0,0,0,2.855-1.172,2.825,2.825,0,0,0,1.212-1.291,4.776,4.776,0,0,0,.274-1.721,6.555,6.555,0,0,0-2-4.81,7.452,7.452,0,0,0-5.514-1.994,11.231,11.231,0,0,0-2.738.351,13.891,13.891,0,0,0-2.7.978,16.927,16.927,0,0,0-2.346,1.369,5.846,5.846,0,0,0-1.6,1.6h-.548Zm18.538,21.277q0-3.362.039-5.124t.039-3.089a18.1,18.1,0,0,1-3.48,1.525,16.572,16.572,0,0,0-3.364,1.486,7.321,7.321,0,0,0-2.5,2.464,8.624,8.624,0,0,0-.977,4.538,6.974,6.974,0,0,0,1.212,4.42,3.932,3.932,0,0,0,3.246,1.526,5.159,5.159,0,0,0,4.186-1.957A8.97,8.97,0,0,0,358.515,73.754Z" transform="translate(-268.637 -26.664)" fill="#fff"/>
      <path id="路径_136" data-name="路径 136" d="M403.41,63.851q0,7.666.157,14.08t.469,12.751a17.391,17.391,0,0,0-2.581-.157h-6.3a12.023,12.023,0,0,0-2.229.157,4.466,4.466,0,0,0,.157-1.018q.078-.859.2-1.955c.078-.73.142-1.408.2-2.034s.077-1.017.077-1.174l-.156-.157a12.752,12.752,0,0,1-4.069,5.438,11.728,11.728,0,0,1-7.118,1.915,14.109,14.109,0,0,1-6.806-1.525,12.685,12.685,0,0,1-4.615-4.263,19.747,19.747,0,0,1-2.66-6.415,34.579,34.579,0,0,1-.86-7.9,24.759,24.759,0,0,1,1.172-7.784,20.328,20.328,0,0,1,3.209-6.178,15,15,0,0,1,4.81-4.107,12.329,12.329,0,0,1,5.906-1.486,12.143,12.143,0,0,1,6.3,1.642,10.624,10.624,0,0,1,4.106,4.146h.157q0-7.038-.157-13.259T392.3,31.7c.675.105,1.537.194,2.581.274s2.137.117,3.286.117,2.24-.04,3.284-.117,1.9-.169,2.581-.274q-.313,6.57-.469,12.984t-.157,14.08Zm-24.561,8.916A34.859,34.859,0,0,0,379.4,79.5a15.207,15.207,0,0,0,1.486,4.42,6.389,6.389,0,0,0,2.151,2.424,4.782,4.782,0,0,0,2.541.743q3.208,0,5.281-3.638t2.072-12.084q0-7.277-1.955-10.6t-5.006-3.324a5.077,5.077,0,0,0-2.5.7A6.374,6.374,0,0,0,381.2,60.6a16.994,16.994,0,0,0-1.681,4.732A34.769,34.769,0,0,0,378.849,72.767Z" transform="translate(-258.775 -31.701)" fill="#fff"/>
      <path id="路径_137" data-name="路径 137" d="M411.568,66.948a26.272,26.272,0,0,0,.626,5.867,14.655,14.655,0,0,0,1.917,4.732,9.407,9.407,0,0,0,3.286,3.129,9.235,9.235,0,0,0,4.654,1.135,14.619,14.619,0,0,0,9.622-3.52l.938.7-1.721,4.381a15.861,15.861,0,0,1-4.693,2.386,23.678,23.678,0,0,1-7.2.9,24.63,24.63,0,0,1-7.273-1.055,15.5,15.5,0,0,1-6.064-3.481,17,17,0,0,1-4.144-6.141,23.3,23.3,0,0,1-1.527-8.878,25.786,25.786,0,0,1,1.37-8.839,17.38,17.38,0,0,1,3.794-6.258,15.489,15.489,0,0,1,5.749-3.755A20.4,20.4,0,0,1,418.14,47q7.744,0,11.851,4.537T434.1,64.367V66.01a3.655,3.655,0,0,1-.078.938Zm12.048-3.52a30.34,30.34,0,0,0-1.448-9.387q-1.29-3.519-4.343-3.52a3.923,3.923,0,0,0-2.892,1.174,8.465,8.465,0,0,0-1.878,3.011A19.924,19.924,0,0,0,412,58.853a39.079,39.079,0,0,0-.432,4.575Z" transform="translate(-248.004 -26.664)" fill="#fff"/>
    </g>
  </g>
  <g id="组_134" data-name="组 134" transform="translate(122.11 75.375)">
    <path id="路径_138" data-name="路径 138" d="M236.347,105.382H191.024V102.4h45.323Z" transform="translate(-191.024 -83.801)" fill="#fff"/>
    <path id="路径_139" data-name="路径 139" d="M240.734,91.879q-.068,1.7-.134,3.518t-.113,3.679q-.044,1.866-.044,3.635v6.383q0,2.468.066,5.078t.2,6.011a16.463,16.463,0,0,0-1.748-.094h-3.517a16.634,16.634,0,0,0-1.769.094q.044-.746.134-2.144t.158-3.1q.066-1.7.133-3.61t.068-3.867V94.326c-.209.093-.524.249-.941.465s-.873.459-1.366.723-.993.528-1.5.791-.972.489-1.389.677q-.492-.7-1.143-1.467a8.774,8.774,0,0,0-1.051-1.1q3.493-1.3,6.63-2.726t6.63-3.284l.852.374Q240.8,90.179,240.734,91.879Z" transform="translate(-179.253 -88.408)" fill="#fff"/>
    <path id="路径_140" data-name="路径 140" d="M247.442,116.921a12.229,12.229,0,0,0,1.7,1.211,4.877,4.877,0,0,0,2.508.56,5.053,5.053,0,0,0,2.62-.792,7.711,7.711,0,0,0,2.4-2.4,14.268,14.268,0,0,0,1.769-4.075,24.2,24.2,0,0,0,.784-5.872l-.089-.092a7.41,7.41,0,0,1-.918,1.047,5.044,5.044,0,0,1-1.21.839,6.478,6.478,0,0,1-1.614.537,11.118,11.118,0,0,1-2.173.186,9.492,9.492,0,0,1-3.247-.558,7.63,7.63,0,0,1-2.71-1.679,8.122,8.122,0,0,1-1.858-2.771,9.981,9.981,0,0,1-.7-3.891,12.513,12.513,0,0,1,.7-4.263,8.969,8.969,0,0,1,5.219-5.451,11.158,11.158,0,0,1,4.256-.768,11.675,11.675,0,0,1,4.457.815,9.1,9.1,0,0,1,3.428,2.447,11.3,11.3,0,0,1,2.217,4.075,18.746,18.746,0,0,1,.784,5.708,28.662,28.662,0,0,1-1.03,8.036,17.955,17.955,0,0,1-2.89,5.94,12.172,12.172,0,0,1-4.458,3.657,13.3,13.3,0,0,1-5.778,1.234,11.443,11.443,0,0,1-1.816-.162,5.336,5.336,0,0,1-1.546-.443q-.223-.652-.492-1.352a14.634,14.634,0,0,0-.627-1.4Zm11.693-18.262q0-4.335-1.053-6.1a3.135,3.135,0,0,0-2.755-1.771,3.015,3.015,0,0,0-2.823,1.957,12.854,12.854,0,0,0-.941,5.451,16.938,16.938,0,0,0,.292,3.4,7.022,7.022,0,0,0,.807,2.237,3.238,3.238,0,0,0,1.21,1.212,3.116,3.116,0,0,0,1.5.372,2.91,2.91,0,0,0,1.433-.372,3.4,3.4,0,0,0,1.187-1.166,6.761,6.761,0,0,0,.829-2.1A13.539,13.539,0,0,0,259.135,98.659Z" transform="translate(-173.35 -88.315)" fill="#fff"/>
    <path id="路径_141" data-name="路径 141" d="M276.813,105.008q-3.808,7.453-6.944,15a8.457,8.457,0,0,0-1.276-.094h-2.846a9.954,9.954,0,0,0-1.478.094q4.167-6.29,7.907-12.463t7.325-12.6q-.584,0-2.33.024t-4.01.069q-2.261.046-4.658.138t-4.279.235q.09-.794.157-1.632c.044-.56.066-1.1.066-1.631s-.023-1.063-.066-1.606-.1-1.079-.157-1.608q.939.048,2.486.117t3.516.14q1.974.07,4.324.116t4.906.047q1.3,0,2.6-.023c.865-.016,1.732-.037,2.6-.069l.312.6Q280.621,97.552,276.813,105.008Z" transform="translate(-166.926 -88.235)" fill="#fff"/>
    <path id="路径_142" data-name="路径 142" d="M296.952,91.879q-.066,1.7-.133,3.518t-.113,3.679q-.046,1.866-.044,3.635v6.383q0,2.468.065,5.078t.2,6.011a16.482,16.482,0,0,0-1.748-.094h-3.517a16.635,16.635,0,0,0-1.769.094q.044-.746.134-2.144t.157-3.1q.068-1.7.134-3.61t.068-3.867V94.326c-.209.093-.524.249-.941.465s-.873.459-1.368.723-.993.528-1.5.791-.972.489-1.389.677q-.492-.7-1.143-1.467a8.762,8.762,0,0,0-1.053-1.1q3.5-1.3,6.631-2.726t6.63-3.284l.851.374Q297.019,90.179,296.952,91.879Z" transform="translate(-160.746 -88.408)" fill="#fff"/>
    <path id="路径_143" data-name="路径 143" d="M345.009,105.382H299.686V102.4h45.323Z" transform="translate(-155.252 -83.801)" fill="#fff"/>
  </g>
</svg>
