<svg xmlns="http://www.w3.org/2000/svg" xmlns:xlink="http://www.w3.org/1999/xlink" width="193.347" height="193.347" viewBox="0 0 193.347 193.347">
  <defs>
    <clipPath id="clip-path">
      <path id="路径_103" data-name="路径 103" d="M10.721-76.82A96.674,96.674,0,0,0,107.4,19.854h0A96.673,96.673,0,0,0,204.068-76.82h0A96.673,96.673,0,0,0,107.4-173.493h0A96.674,96.674,0,0,0,10.721-76.82" transform="translate(-10.721 173.493)" fill="none"/>
    </clipPath>
  </defs>
  <g id="组_125" data-name="组 125" transform="translate(0 0)" clip-path="url(#clip-path)">
    <g id="组_119" data-name="组 119" transform="translate(76.553 12.392)">
      <path id="路径_97" data-name="路径 97" d="M4.154,8.308A26.344,26.344,0,0,1-22.16-18.006,26.344,26.344,0,0,1,4.154-44.319,26.343,26.343,0,0,1,30.467-18.006,26.343,26.343,0,0,1,4.154,8.308m0-48.087A21.8,21.8,0,0,0-17.619-18.006,21.8,21.8,0,0,0,4.154,3.768,21.8,21.8,0,0,0,25.927-18.006,21.8,21.8,0,0,0,4.154-39.779" transform="translate(22.16 44.319)" fill="#fff"/>
    </g>
    <g id="组_120" data-name="组 120" transform="translate(49.787 94.798)">
      <path id="路径_98" data-name="路径 98" d="M13.826,27.651a87.679,87.679,0,0,1-87.58-87.578,87.678,87.678,0,0,1,87.58-87.58,87.678,87.678,0,0,1,87.58,87.58,87.679,87.679,0,0,1-87.58,87.578m0-170.618a83.134,83.134,0,0,0-83.04,83.04,83.134,83.134,0,0,0,83.04,83.039,83.134,83.134,0,0,0,83.04-83.039,83.134,83.134,0,0,0-83.04-83.04" transform="translate(73.754 147.507)" fill="#fff"/>
    </g>
    <g id="组_121" data-name="组 121" transform="translate(23.018 76.356)">
      <path id="路径_99" data-name="路径 99" d="M2.256,4.512A14.308,14.308,0,0,1-12.035-9.78,14.306,14.306,0,0,1,2.256-24.07,14.306,14.306,0,0,1,16.547-9.78,14.308,14.308,0,0,1,2.256,4.512m0-24.042A9.762,9.762,0,0,0-7.5-9.78,9.764,9.764,0,0,0,2.256-.028,9.764,9.764,0,0,0,12.007-9.78a9.762,9.762,0,0,0-9.751-9.75" transform="translate(12.035 24.07)" fill="#fff"/>
    </g>
    <g id="组_122" data-name="组 122" transform="translate(34.716 116.128)">
      <path id="路径_100" data-name="路径 100" d="M11.336,22.673A71.893,71.893,0,0,1-60.475-49.139,71.893,71.893,0,0,1,11.336-120.95c19.727,0,37.747,6.81,50.739,19.176C75.861-88.651,83.148-70.45,83.148-49.139A71.893,71.893,0,0,1,11.336,22.673m0-139.083A67.348,67.348,0,0,0-55.935-49.139,67.348,67.348,0,0,0,11.336,18.133,67.348,67.348,0,0,0,78.608-49.139c0-39.609-27.663-67.272-67.272-67.272" transform="translate(60.475 120.95)" fill="#fff"/>
    </g>
    <g id="组_123" data-name="组 123" transform="translate(40.451 40.883)">
      <path id="路径_101" data-name="路径 101" d="M.2,9.981-1.052,5.617A48.807,48.807,0,0,0,27.9-16.789c11.69-20.391,7.14-36.234,7.167-36.457l4.506.553c-.116.95,5.224,17.7-7.932,38.474A57.184,57.184,0,0,1,.2,9.981" transform="translate(1.052 53.246)" fill="#fff"/>
    </g>
    <g id="组_124" data-name="组 124" transform="translate(20.663 50.641)">
      <path id="路径_102" data-name="路径 102" d="M2.6,18.776C-3.6,16.827-14.995,9.478-13.756-4.4-12.178-22.043,11.094-34.776,33.6-47.09c3.182-1.742,6.473-3.542,9.571-5.291,30.623-17.283,43.448-47.477,43.575-47.78l4.193,1.738c-.537,1.3-13.5,31.916-45.535,50-3.125,1.763-6.429,3.571-9.624,5.319C15.317-31.913-7.872-19.224-9.233-3.994c-1.222,13.671,12.607,18.252,13.2,18.44Z" transform="translate(13.85 100.161)" fill="#fff"/>
    </g>
  </g>
</svg>
